  0
SECTION
  2
HEADER
  9
$ACADVER
  1
AC1014
  9
$HANDSEED
  5
FFFF
  9
$MEASUREMENT
 70
     1
  0
ENDSEC
  0
SECTION
  2
TABLES
  0
TABLE
  2
VPORT
  5
8
330
0
100
AcDbSymbolTable
 70
     4
  0
VPORT
  5
2E
330
8
100
AcDbSymbolTableRecord
100
AcDbViewportTableRecord
  2
*ACTIVE
 70
     0
 10
0.0
 20
0.0
 11
1.0
 21
1.0
 12
210.0
 22
148.5
 13
0.0
 23
0.0
 14
10.0
 24
10.0
 15
10.0
 25
10.0
 16
0.0
 26
0.0
 36
1.0
 17
0.0
 27
0.0
 37
0.0
 40
341.0
 41
1.24
 42
50.0
 43
0.0
 44
0.0
 50
0.0
 51
0.0
 71
     0
 72
   100
 73
     1
 74
     3
 75
     0
 76
     0
 77
     0
 78
     0
  0
ENDTAB
  0
TABLE
  2
LTYPE
  5
5
330
0
100
AcDbSymbolTable
 70
     1
  0
LTYPE
  5
14
330
5
100
AcDbSymbolTableRecord
100
AcDbLinetypeTableRecord
  2
BYBLOCK
 70
     0
  3

 72
    65
 73
     0
 40
0.0
  0
LTYPE
  5
15
330
5
100
AcDbSymbolTableRecord
100
AcDbLinetypeTableRecord
  2
BYLAYER
 70
     0
  3

 72
    65
 73
     0
 40
0.0
  0
LTYPE
  5
16
330
5
100
AcDbSymbolTableRecord
100
AcDbLinetypeTableRecord
  2
CONTINUOUS
 70
     0
  3
Solid line
 72
    65
 73
     0
 40
0.0
  0
ENDTAB
  0
TABLE
  2
LAYER
  5
2
100
AcDbSymbolTable
 70
2
  0
LAYER
  5
50
100
AcDbSymbolTableRecord
100
AcDbLayerTableRecord
  2
0
 70
0
  6
CONTINUOUS
  0
LAYER
  5
51
100
AcDbSymbolTableRecord
100
AcDbLayerTableRecord
  2
Ebene_1
 70
0
  6
CONTINUOUS
  0
ENDTAB
  0
TABLE
  2
STYLE
  5
3
330
0
100
AcDbSymbolTable
 70
     1
  0
STYLE
  5
11
330
3
100
AcDbSymbolTableRecord
100
AcDbTextStyleTableRecord
  2
STANDARD
 70
     0
 40
0.0
 41
1.0
 50
0.0
 71
     0
 42
2.5
  3
txt
  4

  0
ENDTAB
  0
TABLE
  2
VIEW
  5
6
330
0
100
AcDbSymbolTable
 70
     0
  0
ENDTAB
  0
TABLE
  2
UCS
  5
7
330
0
100
AcDbSymbolTable
 70
     0
  0
ENDTAB
  0
TABLE
  2
APPID
  5
9
330
0
100
AcDbSymbolTable
 70
     2
  0
APPID
  5
12
330
9
100
AcDbSymbolTableRecord
100
AcDbRegAppTableRecord
  2
ACAD
 70
     0
  0
ENDTAB
  0
TABLE
  2
DIMSTYLE
  5
A
330
0
100
AcDbSymbolTable
 70
     1
  0
DIMSTYLE
105
27
330
A
100
AcDbSymbolTableRecord
100
AcDbDimStyleTableRecord
  2
ISO-25
 70
     0
  3

  4

  5

  6

  7

 40
1.0
 41
2.5
 42
0.625
 43
3.75
 44
1.25
 45
0.0
 46
0.0
 47
0.0
 48
0.0
140
2.5
141
2.5
142
0.0
143
0.03937007874016
144
1.0
145
0.0
146
1.0
147
0.625
 71
     0
 72
     0
 73
     0
 74
     0
 75
     0
 76
     0
 77
     1
 78
     8
170
     0
171
     3
172
     1
173
     0
174
     0
175
     0
176
     0
177
     0
178
     0
270
     2
271
     2
272
     2
273
     2
274
     3
340
11
275
     0
280
     0
281
     0
282
     0
283
     0
284
     8
285
     0
286
     0
287
     3
288
     0
  0
ENDTAB
  0
TABLE
  2
BLOCK_RECORD
  5
1
330
0
100
AcDbSymbolTable
 70
     1
  0
BLOCK_RECORD
  5
1F
330
1
100
AcDbSymbolTableRecord
100
AcDbBlockTableRecord
  2
*MODEL_SPACE
  0
BLOCK_RECORD
  5
1B
330
1
100
AcDbSymbolTableRecord
100
AcDbBlockTableRecord
  2
*PAPER_SPACE
  0
ENDTAB
  0
ENDSEC
  0
SECTION
  2
BLOCKS
  0
BLOCK
  5
20
330
1F
100
AcDbEntity
  8
0
100
AcDbBlockBegin
  2
*MODEL_SPACE
 70
     0
 10
0.0
 20
0.0
 30
0.0
  3
*MODEL_SPACE
  1

  0
ENDBLK
  5
21
330
1F
100
AcDbEntity
  8
0
100
AcDbBlockEnd
  0
BLOCK
  5
1C
330
1B
100
AcDbEntity
 67
     1
  8
0
100
AcDbBlockBegin
  2
*PAPER_SPACE
  1

  0
ENDBLK
  5
1D
330
1B
100
AcDbEntity
 67
     1
  8
0
100
AcDbBlockEnd
  0
ENDSEC
  0
SECTION
  2
ENTITIES
  0
LWPOLYLINE
  5
100
100
AcDbEntity
  8
Ebene_1
 62
2
100
AcDbPolyline
 90
759
 70
0
 10
13.887625
 20
229.771394
 30
0.0
 10
14.187485
 20
229.919560
 30
0.0
 10
14.445015
 20
230.134755
 30
0.0
 10
14.642565
 20
230.406394
 30
0.0
 10
14.773095
 20
230.713310
 30
0.0
 10
14.829495
 20
231.044922
 30
0.0
 10
14.804795
 20
231.380060
 30
0.0
 10
14.702485
 20
231.701088
 30
0.0
 10
14.526095
 20
231.986838
 30
0.0
 10
14.289735
 20
232.226727
 30
0.0
 10
14.003985
 20
232.399588
 30
0.0
 10
14.003985
 20
232.399588
 30
0.0
 10
13.700595
 20
232.505422
 30
0.0
 10
13.376045
 20
232.530112
 30
0.0
 10
13.058545
 20
232.473672
 30
0.0
 10
12.765735
 20
232.339616
 30
0.0
 10
12.515265
 20
232.138533
 30
0.0
 10
12.321235
 20
231.881005
 30
0.0
 10
12.197765
 20
231.581144
 30
0.0
 10
12.148365
 20
231.263644
 30
0.0
 10
12.183665
 20
230.942616
 30
0.0
 10
12.183665
 20
230.942616
 30
0.0
 10
12.300085
 20
230.335838
 30
0.0
 10
12.377685
 20
229.722005
 30
0.0
 10
12.377685
 20
229.722005
 30
0.0
 10
12.381685
 20
229.203421
 30
0.0
 10
12.300585
 20
228.691894
 30
0.0
 10
12.134775
 20
228.201533
 30
0.0
 10
11.887835
 20
227.746449
 30
0.0
 10
11.570335
 20
227.337227
 30
0.0
 10
11.189335
 20
226.987977
 30
0.0
 10
10.755415
 20
226.705755
 30
0.0
 10
10.279165
 20
226.497616
 30
0.0
 10
9.778225
 20
226.374144
 30
0.0
 10
9.259635
 20
226.335334
 30
0.0
 10
8.744585
 20
226.384724
 30
0.0
 10
8.243635
 20
226.515252
 30
0.0
 10
7.774445
 20
226.730446
 30
0.0
 10
7.344055
 20
227.019724
 30
0.0
 10
6.970105
 20
227.376029
 30
0.0
 10
6.659665
 20
227.792307
 30
0.0
 10
6.419775
 20
228.250918
 30
0.0
 10
6.264555
 20
228.744807
 30
0.0
 10
6.264555
 20
228.744807
 30
0.0
 10
6.116385
 20
229.566780
 30
0.0
 10
6.049385
 20
230.402863
 30
0.0
 10
6.066985
 20
231.238946
 30
0.0
 10
6.165785
 20
232.067974
 30
0.0
 10
6.345705
 20
232.886419
 30
0.0
 10
6.606755
 20
233.680169
 30
0.0
 10
6.941895
 20
234.449224
 30
0.0
 10
7.354645
 20
235.175947
 30
0.0
 10
7.830895
 20
235.863863
 30
0.0
 10
8.377705
 20
236.498863
 30
0.0
 10
8.980955
 20
237.077419
 30
0.0
 10
9.640645
 20
237.592475
 30
0.0
 10
10.346205
 20
238.040502
 30
0.0
 10
11.090565
 20
238.417975
 30
0.0
 10
11.870205
 20
238.721364
 30
0.0
 10
12.678065
 20
238.947141
 30
0.0
 10
13.500035
 20
239.091780
 30
0.0
 10
13.500035
 20
239.091780
 30
0.0
 10
14.251455
 20
239.144700
 30
0.0
 10
15.002865
 20
239.116480
 30
0.0
 10
15.750755
 20
239.010646
 30
0.0
 10
16.477485
 20
238.827202
 30
0.0
 10
17.186565
 20
238.566146
 30
0.0
 10
17.860365
 20
238.234535
 30
0.0
 10
18.495365
 20
237.828841
 30
0.0
 10
19.084505
 20
237.363174
 30
0.0
 10
19.620735
 20
236.834007
 30
0.0
 10
20.096985
 20
236.251924
 30
0.0
 10
20.509735
 20
235.623979
 30
0.0
 10
20.855455
 20
234.953702
 30
0.0
 10
21.127095
 20
234.251674
 30
0.0
 10
21.321125
 20
233.524952
 30
0.0
 10
21.437535
 20
232.780590
 30
0.0
 10
21.476335
 20
232.029174
 30
0.0
 10
21.434035
 20
231.277757
 30
0.0
 10
21.314095
 20
230.536924
 30
0.0
 10
21.113015
 20
229.810201
 30
0.0
 10
20.837845
 20
229.108173
 30
0.0
 10
20.837845
 20
229.108173
 30
0.0
 10
20.199315
 20
226.331812
 30
0.0
 10
19.641925
 20
223.537812
 30
0.0
 10
19.169205
 20
220.726173
 30
0.0
 10
18.777625
 20
217.903951
 30
0.0
 10
18.470705
 20
215.071145
 30
0.0
 10
18.248455
 20
212.227756
 30
0.0
 10
18.110875
 20
209.380839
 30
0.0
 10
18.054375
 20
206.533922
 30
0.0
 10
18.086175
 20
203.683477
 30
0.0
 10
18.199065
 20
200.836561
 30
0.0
 10
18.400145
 20
197.993172
 30
0.0
 10
18.682375
 20
195.156840
 30
0.0
 10
19.049265
 20
192.331090
 30
0.0
 10
19.497285
 20
189.515920
 30
0.0
 10
20.029985
 20
186.714870
 30
0.0
 10
20.647345
 20
183.931450
 30
0.0
 10
20.647345
 20
183.931450
 30
0.0
 10
20.784925
 20
183.448140
 30
0.0
 10
20.837825
 20
182.950730
 30
0.0
 10
20.806125
 20
182.449780
 30
0.0
 10
20.693235
 20
181.959420
 30
0.0
 10
20.495675
 20
181.497280
 30
0.0
 10
20.224045
 20
181.073950
 30
0.0
 10
19.885375
 20
180.703530
 30
0.0
 10
19.490265
 20
180.393090
 30
0.0
 10
19.045765
 20
180.156730
 30
0.0
 10
18.569515
 20
179.994450
 30
0.0
 10
18.075625
 20
179.920350
 30
0.0
 10
17.571155
 20
179.927350
 30
0.0
 10
17.571155
 20
179.927350
 30
0.0
 10
17.338315
 20
179.899150
 30
0.0
 10
17.126655
 20
179.793320
 30
0.0
 10
16.960845
 20
179.627510
 30
0.0
 10
16.862045
 20
179.412320
 30
0.0
 10
16.837345
 20
179.179480
 30
0.0
 10
16.837345
 20
174.226480
 30
0.0
 10
16.837345
 20
174.226480
 30
0.0
 10
16.883245
 20
172.233280
 30
0.0
 10
17.017305
 20
170.247140
 30
0.0
 10
17.232495
 20
168.268060
 30
0.0
 10
17.535885
 20
166.296030
 30
0.0
 10
17.920415
 20
164.341640
 30
0.0
 10
18.389605
 20
162.408420
 30
0.0
 10
18.943465
 20
160.492840
 30
0.0
 10
19.578465
 20
158.605480
 30
0.0
 10
20.291075
 20
156.742810
 30
0.0
 10
21.084825
 20
154.915420
 30
0.0
 10
21.956195
 20
153.126840
 30
0.0
 10
22.901635
 20
151.373530
 30
0.0
 10
23.924695
 20
149.662560
 30
0.0
 10
25.018305
 20
147.997450
 30
0.0
 10
25.018305
 20
147.997450
 30
0.0
 10
26.665775
 20
145.602090
 30
0.0
 10
28.387325
 20
143.256110
 30
0.0
 10
30.175915
 20
140.963060
 30
0.0
 10
32.038575
 20
138.726450
 30
0.0
 10
33.961215
 20
136.546280
 30
0.0
 10
35.954415
 20
134.426080
 30
0.0
 10
38.007575
 20
132.365860
 30
0.0
 10
40.124245
 20
130.369140
 30
0.0
 10
42.300885
 20
128.435920
 30
0.0
 10
44.530445
 20
126.573250
 30
0.0
 10
46.819965
 20
124.777610
 30
0.0
 10
49.162415
 20
123.049000
 30
0.0
 10
51.554245
 20
121.394470
 30
0.0
 10
53.995465
 20
119.814030
 30
0.0
 10
56.482555
 20
118.307670
 30
0.0
 10
59.015495
 20
116.875390
 30
0.0
 10
61.590775
 20
115.520720
 30
0.0
 10
64.204855
 20
114.247190
 30
0.0
 10
66.857745
 20
113.051280
 30
0.0
 10
69.542385
 20
111.936500
 30
0.0
 10
72.262305
 20
110.902860
 30
0.0
 10
75.010445
 20
109.950360
 30
0.0
 10
77.786805
 20
109.086060
 30
0.0
 10
80.591385
 20
108.302890
 30
0.0
 10
83.413615
 20
107.604390
 30
0.0
 10
86.256995
 20
106.994080
 30
0.0
 10
89.118025
 20
106.468440
 30
0.0
 10
91.996695
 20
106.031000
 30
0.0
 10
94.882415
 20
105.678220
 30
0.0
 10
97.778725
 20
105.417170
 30
0.0
 10
100.682080
 20
105.240780
 30
0.0
 10
103.588970
 20
105.152580
 30
0.0
 10
106.499380
 20
105.152580
 30
0.0
 10
109.406270
 20
105.240780
 30
0.0
 10
112.309640
 20
105.417170
 30
0.0
 10
115.209470
 20
105.678220
 30
0.0
 10
118.095200
 20
106.031000
 30
0.0
 10
120.970330
 20
106.468440
 30
0.0
 10
123.831360
 20
106.994080
 30
0.0
 10
126.674750
 20
107.604390
 30
0.0
 10
129.500500
 20
108.302890
 30
0.0
 10
132.301560
 20
109.086060
 30
0.0
 10
135.077920
 20
109.950360
 30
0.0
 10
137.829590
 20
110.902860
 30
0.0
 10
140.545970
 20
111.936500
 30
0.0
 10
143.234140
 20
113.051280
 30
0.0
 10
145.887030
 20
114.247190
 30
0.0
 10
148.501110
 20
115.520720
 30
0.0
 10
151.076390
 20
116.875390
 30
0.0
 10
153.609340
 20
118.307670
 30
0.0
 10
156.096420
 20
119.814030
 30
0.0
 10
158.537640
 20
121.394470
 30
0.0
 10
160.929480
 20
123.049000
 30
0.0
 10
163.271920
 20
124.774080
 30
0.0
 10
165.557920
 20
126.573250
 30
0.0
 10
167.791000
 20
128.435920
 30
0.0
 10
169.967640
 20
130.369140
 30
0.0
 10
172.080780
 20
132.365860
 30
0.0
 10
174.137480
 20
134.422560
 30
0.0
 10
176.127140
 20
136.546280
 30
0.0
 10
178.053310
 20
138.726450
 30
0.0
 10
179.912450
 20
140.963060
 30
0.0
 10
181.704560
 20
143.256110
 30
0.0
 10
183.422590
 20
145.598560
 30
0.0
 10
185.073590
 20
147.997450
 30
0.0
 10
185.073590
 20
147.997450
 30
0.0
 10
186.117810
 20
149.584950
 30
0.0
 10
187.095010
 20
151.211250
 30
0.0
 10
188.008700
 20
152.879890
 30
0.0
 10
188.851840
 20
154.583810
 30
0.0
 10
189.624420
 20
156.319470
 30
0.0
 10
190.322920
 20
158.086890
 30
0.0
 10
190.950870
 20
159.879000
 30
0.0
 10
191.504730
 20
161.699340
 30
0.0
 10
191.984510
 20
163.537310
 30
0.0
 10
192.390200
 20
165.392920
 30
0.0
 10
192.714760
 20
167.266170
 30
0.0
 10
192.965230
 20
169.150000
 30
0.0
 10
193.141620
 20
171.040890
 30
0.0
 10
193.236920
 20
172.938840
 30
0.0
 10
193.254520
 20
174.840310
 30
0.0
 10
193.268620
 20
179.264150
 30
0.0
 10
193.268620
 20
179.264150
 30
0.0
 10
193.222720
 20
179.479340
 30
0.0
 10
193.113360
 20
179.666320
 30
0.0
 10
192.951080
 20
179.814480
 30
0.0
 10
192.750000
 20
179.902680
 30
0.0
 10
192.534800
 20
179.927380
 30
0.0
 10
192.534800
 20
179.927380
 30
0.0
 10
192.030330
 20
179.920380
 30
0.0
 10
191.536440
 20
179.994480
 30
0.0
 10
191.060190
 20
180.156760
 30
0.0
 10
190.615690
 20
180.393120
 30
0.0
 10
190.220580
 20
180.703570
 30
0.0
 10
189.881910
 20
181.073980
 30
0.0
 10
189.610270
 20
181.497320
 30
0.0
 10
189.412720
 20
181.959450
 30
0.0
 10
189.299830
 20
182.449820
 30
0.0
 10
189.268130
 20
182.950760
 30
0.0
 10
189.321030
 20
183.448180
 30
0.0
 10
189.458610
 20
183.931480
 30
0.0
 10
189.458610
 20
183.931480
 30
0.0
 10
190.075970
 20
186.714900
 30
0.0
 10
190.608670
 20
189.515950
 30
0.0
 10
191.056700
 20
192.331120
 30
0.0
 10
191.423580
 20
195.156870
 30
0.0
 10
191.705810
 20
197.993205
 30
0.0
 10
191.906890
 20
200.836594
 30
0.0
 10
192.019780
 20
203.683510
 30
0.0
 10
192.051480
 20
206.533955
 30
0.0
 10
191.995080
 20
209.380872
 30
0.0
 10
191.857490
 20
212.227789
 30
0.0
 10
191.635240
 20
215.071178
 30
0.0
 10
191.328330
 20
217.903984
 30
0.0
 10
190.936740
 20
220.726206
 30
0.0
 10
190.464020
 20
223.537845
 30
0.0
 10
189.906630
 20
226.331845
 30
0.0
 10
189.268110
 20
229.108206
 30
0.0
 10
189.268110
 20
229.108206
 30
0.0
 10
188.992940
 20
229.810234
 30
0.0
 10
188.791860
 20
230.536957
 30
0.0
 10
188.671910
 20
231.277790
 30
0.0
 10
188.629610
 20
232.029207
 30
0.0
 10
188.668410
 20
232.780623
 30
0.0
 10
188.784830
 20
233.524985
 30
0.0
 10
188.978860
 20
234.251707
 30
0.0
 10
189.250490
 20
234.953735
 30
0.0
 10
189.596220
 20
235.624012
 30
0.0
 10
190.008970
 20
236.251957
 30
0.0
 10
190.485220
 20
236.834040
 30
0.0
 10
191.021440
 20
237.363207
 30
0.0
 10
191.610580
 20
237.828874
 30
0.0
 10
192.245580
 20
238.234568
 30
0.0
 10
192.919380
 20
238.566179
 30
0.0
 10
193.628470
 20
238.827235
 30
0.0
 10
194.355190
 20
239.010679
 30
0.0
 10
195.103080
 20
239.116513
 30
0.0
 10
195.854500
 20
239.144733
 30
0.0
 10
196.605910
 20
239.091813
 30
0.0
 10
196.605910
 20
239.091813
 30
0.0
 10
197.427880
 20
238.947174
 30
0.0
 10
198.235750
 20
238.721397
 30
0.0
 10
199.015380
 20
238.418008
 30
0.0
 10
199.759750
 20
238.040535
 30
0.0
 10
200.465300
 20
237.592508
 30
0.0
 10
201.125000
 20
237.077452
 30
0.0
 10
201.728250
 20
236.498896
 30
0.0
 10
202.275050
 20
235.863896
 30
0.0
 10
202.751300
 20
235.175980
 30
0.0
 10
203.164050
 20
234.449257
 30
0.0
 10
203.499190
 20
233.680202
 30
0.0
 10
203.760250
 20
232.886452
 30
0.0
 10
203.940160
 20
232.068007
 30
0.0
 10
204.038960
 20
231.238979
 30
0.0
 10
204.056560
 20
230.402896
 30
0.0
 10
203.989560
 20
229.566813
 30
0.0
 10
203.841400
 20
228.744840
 30
0.0
 10
203.841400
 20
228.744840
 30
0.0
 10
203.686170
 20
228.250951
 30
0.0
 10
203.446280
 20
227.792340
 30
0.0
 10
203.135840
 20
227.376062
 30
0.0
 10
202.761900
 20
227.019757
 30
0.0
 10
202.331510
 20
226.730479
 30
0.0
 10
201.862310
 20
226.515285
 30
0.0
 10
201.361370
 20
226.384757
 30
0.0
 10
200.846310
 20
226.335367
 30
0.0
 10
200.327730
 20
226.374177
 30
0.0
 10
199.826780
 20
226.497649
 30
0.0
 10
199.350530
 20
226.705788
 30
0.0
 10
198.916620
 20
226.988010
 30
0.0
 10
198.535620
 20
227.337260
 30
0.0
 10
198.218120
 20
227.746482
 30
0.0
 10
197.971170
 20
228.201566
 30
0.0
 10
197.805370
 20
228.691927
 30
0.0
 10
197.724270
 20
229.203454
 30
0.0
 10
197.728270
 20
229.722038
 30
0.0
 10
197.728270
 20
229.722038
 30
0.0
 10
197.788270
 20
230.212399
 30
0.0
 10
197.869370
 20
230.699232
 30
0.0
 10
197.869370
 20
230.699232
 30
0.0
 10
197.929370
 20
231.111982
 30
0.0
 10
197.929370
 20
231.111982
 30
0.0
 10
197.922370
 20
231.411843
 30
0.0
 10
197.844770
 20
231.701121
 30
0.0
 10
197.703650
 20
231.965705
 30
0.0
 10
197.506100
 20
232.191482
 30
0.0
 10
197.259150
 20
232.364344
 30
0.0
 10
196.980460
 20
232.477232
 30
0.0
 10
196.684130
 20
232.519562
 30
0.0
 10
196.384270
 20
232.494862
 30
0.0
 10
196.102040
 20
232.399612
 30
0.0
 10
196.102040
 20
232.399612
 30
0.0
 10
195.816290
 20
232.226751
 30
0.0
 10
195.579930
 20
231.986862
 30
0.0
 10
195.403540
 20
231.701112
 30
0.0
 10
195.301240
 20
231.380084
 30
0.0
 10
195.276540
 20
231.044946
 30
0.0
 10
195.333040
 20
230.713334
 30
0.0
 10
195.463570
 20
230.406418
 30
0.0
 10
195.661120
 20
230.134779
 30
0.0
 10
195.918650
 20
229.919584
 30
0.0
 10
196.218510
 20
229.771418
 30
0.0
 10
196.218510
 20
229.771418
 30
0.0
 10
196.857040
 20
226.857473
 30
0.0
 10
197.410900
 20
223.929417
 30
0.0
 10
197.880090
 20
220.987251
 30
0.0
 10
198.261090
 20
218.030973
 30
0.0
 10
198.560960
 20
215.067639
 30
0.0
 10
198.776150
 20
212.093722
 30
0.0
 10
198.903150
 20
209.116278
 30
0.0
 10
198.945450
 20
206.138833
 30
0.0
 10
198.945450
 20
196.324560
 30
0.0
 10
198.945450
 20
196.324560
 30
0.0
 10
198.994850
 20
196.070550
 30
0.0
 10
199.114790
 20
195.837720
 30
0.0
 10
199.291180
 20
195.647220
 30
0.0
 10
199.513430
 20
195.513170
 30
0.0
 10
199.763910
 20
195.442570
 30
0.0
 10
200.021430
 20
195.446570
 30
0.0
 10
200.271910
 20
195.520670
 30
0.0
 10
200.490630
 20
195.658250
 30
0.0
 10
200.663490
 20
195.848750
 30
0.0
 10
200.779910
 20
196.081580
 30
0.0
 10
204.776880
 20
207.395167
 30
0.0
 10
204.776880
 20
207.395167
 30
0.0
 10
204.949740
 20
207.765584
 30
0.0
 10
205.200210
 20
208.093667
 30
0.0
 10
205.510660
 20
208.361778
 30
0.0
 10
205.870490
 20
208.562861
 30
0.0
 10
206.262070
 20
208.682806
 30
0.0
 10
206.674820
 20
208.721606
 30
0.0
 10
207.080520
 20
208.675746
 30
0.0
 10
207.472100
 20
208.545218
 30
0.0
 10
207.828410
 20
208.340607
 30
0.0
 10
208.131800
 20
208.061913
 30
0.0
 10
208.375210
 20
207.730302
 30
0.0
 10
208.544550
 20
207.356357
 30
0.0
 10
208.632750
 20
206.954191
 30
0.0
 10
208.632750
 20
206.954191
 30
0.0
 10
208.936140
 20
203.885024
 30
0.0
 10
209.154860
 20
200.808801
 30
0.0
 10
209.288920
 20
197.729051
 30
0.0
 10
209.334820
 20
194.645770
 30
0.0
 10
209.299520
 20
191.562500
 30
0.0
 10
209.176050
 20
188.482750
 30
0.0
 10
208.971440
 20
185.406520
 30
0.0
 10
208.678630
 20
182.337360
 30
0.0
 10
208.301160
 20
179.278770
 30
0.0
 10
207.839020
 20
176.230770
 30
0.0
 10
207.839020
 20
176.230770
 30
0.0
 10
207.754320
 20
175.835660
 30
0.0
 10
207.584990
 20
175.472300
 30
0.0
 10
207.345100
 20
175.151270
 30
0.0
 10
207.041710
 20
174.890220
 30
0.0
 10
206.688930
 20
174.699720
 30
0.0
 10
206.300880
 20
174.590360
 30
0.0
 10
205.902240
 20
174.562160
 30
0.0
 10
205.503600
 20
174.622160
 30
0.0
 10
205.129660
 20
174.763270
 30
0.0
 10
204.794520
 20
174.985520
 30
0.0
 10
204.512290
 20
175.271270
 30
0.0
 10
204.300630
 20
175.609930
 30
0.0
 10
204.163040
 20
175.987410
 30
0.0
 10
204.110140
 20
176.386040
 30
0.0
 10
204.141840
 20
176.784680
 30
0.0
 10
204.141840
 20
176.784680
 30
0.0
 10
204.554590
 20
179.088320
 30
0.0
 10
204.900310
 20
181.406070
 30
0.0
 10
205.186060
 20
183.727350
 30
0.0
 10
205.408310
 20
186.059210
 30
0.0
 10
205.563530
 20
188.394600
 30
0.0
 10
205.563530
 20
188.394600
 30
0.0
 10
205.535330
 20
188.638020
 30
0.0
 10
205.425970
 20
188.860270
 30
0.0
 10
205.246050
 20
189.029600
 30
0.0
 10
205.016750
 20
189.124800
 30
0.0
 10
204.769800
 20
189.138900
 30
0.0
 10
204.536970
 20
189.064800
 30
0.0
 10
204.339410
 20
188.916640
 30
0.0
 10
204.205360
 20
188.708500
 30
0.0
 10
204.148960
 20
188.468610
 30
0.0
 10
204.148960
 20
188.468610
 30
0.0
 10
203.979630
 20
185.910970
 30
0.0
 10
203.739740
 20
183.360380
 30
0.0
 10
203.425770
 20
180.816860
 30
0.0
 10
203.037710
 20
178.283910
 30
0.0
 10
202.575570
 20
175.761550
 30
0.0
 10
202.046410
 20
173.256830
 30
0.0
 10
201.443160
 20
170.766220
 30
0.0
 10
200.769350
 20
168.293240
 30
0.0
 10
200.021460
 20
165.841440
 30
0.0
 10
199.206550
 20
163.410800
 30
0.0
 10
199.206550
 20
163.410800
 30
0.0
 10
199.167750
 20
163.188550
 30
0.0
 10
199.192450
 20
162.962770
 30
0.0
 10
199.284150
 20
162.758160
 30
0.0
 10
199.435840
 20
162.588830
 30
0.0
 10
199.626340
 20
162.472410
 30
0.0
 10
199.845060
 20
162.419510
 30
0.0
 10
200.070840
 20
162.433610
 30
0.0
 10
200.070840
 20
162.433610
 30
0.0
 10
200.532980
 20
162.486510
 30
0.0
 10
200.998650
 20
162.458310
 30
0.0
 10
201.446670
 20
162.338360
 30
0.0
 10
201.866480
 20
162.140810
 30
0.0
 10
202.243950
 20
161.869170
 30
0.0
 10
202.564980
 20
161.526980
 30
0.0
 10
202.811920
 20
161.135390
 30
0.0
 10
202.984790
 20
160.705000
 30
0.0
 10
203.076490
 20
160.246390
 30
0.0
 10
203.080490
 20
159.784250
 30
0.0
 10
202.995790
 20
159.325640
 30
0.0
 10
202.829980
 20
158.891730
 30
0.0
 10
202.583040
 20
158.496610
 30
0.0
 10
202.269070
 20
158.154420
 30
0.0
 10
201.895120
 20
157.875730
 30
0.0
 10
201.478850
 20
157.671110
 30
0.0
 10
201.030820
 20
157.547640
 30
0.0
 10
200.565150
 20
157.508840
 30
0.0
 10
200.103010
 20
157.558240
 30
0.0
 10
199.658510
 20
157.695820
 30
0.0
 10
199.245760
 20
157.911010
 30
0.0
 10
198.878870
 20
158.196760
 30
0.0
 10
198.575480
 20
158.549540
 30
0.0
 10
198.575480
 20
158.549540
 30
0.0
 10
198.416730
 20
158.711820
 30
0.0
 10
198.219180
 20
158.817650
 30
0.0
 10
197.996930
 20
158.859950
 30
0.0
 10
197.774680
 20
158.835250
 30
0.0
 10
197.566540
 20
158.743550
 30
0.0
 10
197.397210
 20
158.595380
 30
0.0
 10
197.280790
 20
158.404880
 30
0.0
 10
197.280790
 20
158.404880
 30
0.0
 10
196.243620
 20
156.030690
 30
0.0
 10
195.139430
 20
153.691770
 30
0.0
 10
193.964680
 20
151.384600
 30
0.0
 10
192.726430
 20
149.112710
 30
0.0
 10
191.424680
 20
146.876100
 30
0.0
 10
190.055900
 20
144.678300
 30
0.0
 10
190.055900
 20
144.678300
 30
0.0
 10
188.411960
 20
142.282940
 30
0.0
 10
186.697460
 20
139.933440
 30
0.0
 10
184.919460
 20
137.636850
 30
0.0
 10
183.074430
 20
135.389660
 30
0.0
 10
181.165900
 20
133.195380
 30
0.0
 10
179.197400
 20
131.057550
 30
0.0
 10
177.168930
 20
128.976160
 30
0.0
 10
175.084010
 20
126.954740
 30
0.0
 10
172.939120
 20
124.989770
 30
0.0
 10
170.737790
 20
123.088300
 30
0.0
 10
168.487070
 20
121.253850
 30
0.0
 10
166.183430
 20
119.479380
 30
0.0
 10
163.830400
 20
117.771930
 30
0.0
 10
161.431510
 20
116.135050
 30
0.0
 10
158.983230
 20
114.565180
 30
0.0
 10
156.492620
 20
113.065880
 30
0.0
 10
153.963200
 20
111.637130
 30
0.0
 10
151.391450
 20
110.282460
 30
0.0
 10
148.780900
 20
109.001880
 30
0.0
 10
146.138590
 20
107.795380
 30
0.0
 10
146.138590
 20
107.795380
 30
0.0
 10
145.948090
 20
107.671910
 30
0.0
 10
145.799930
 20
107.499050
 30
0.0
 10
145.715230
 20
107.290910
 30
0.0
 10
145.694030
 20
107.068660
 30
0.0
 10
145.739930
 20
106.846410
 30
0.0
 10
145.849290
 20
106.648850
 30
0.0
 10
146.015090
 20
106.493630
 30
0.0
 10
146.015090
 20
106.493630
 30
0.0
 10
146.371400
 20
106.197300
 30
0.0
 10
146.664200
 20
105.837460
 30
0.0
 10
146.889980
 20
105.428240
 30
0.0
 10
147.031090
 20
104.987270
 30
0.0
 10
147.091090
 20
104.525130
 30
0.0
 10
147.062890
 20
104.062990
 30
0.0
 10
146.946480
 20
103.611430
 30
0.0
 10
146.752450
 20
103.188100
 30
0.0
 10
146.480810
 20
102.810630
 30
0.0
 10
146.145670
 20
102.489600
 30
0.0
 10
145.754090
 20
102.239130
 30
0.0
 10
145.323700
 20
102.062740
 30
0.0
 10
144.868610
 20
101.971040
 30
0.0
 10
144.402950
 20
101.964040
 30
0.0
 10
143.944340
 20
102.045140
 30
0.0
 10
143.510420
 20
102.207420
 30
0.0
 10
143.111780
 20
102.450830
 30
0.0
 10
142.769590
 20
102.761280
 30
0.0
 10
142.487360
 20
103.131700
 30
0.0
 10
142.279220
 20
103.547970
 30
0.0
 10
142.152220
 20
103.996000
 30
0.0
 10
142.113420
 20
104.458140
 30
0.0
 10
142.159320
 20
104.920280
 30
0.0
 10
142.159320
 20
104.920280
 30
0.0
 10
142.166320
 20
105.146060
 30
0.0
 10
142.106320
 20
105.364780
 30
0.0
 10
141.986380
 20
105.555280
 30
0.0
 10
141.813520
 20
105.699920
 30
0.0
 10
141.605380
 20
105.788120
 30
0.0
 10
141.379600
 20
105.809320
 30
0.0
 10
141.160880
 20
105.759920
 30
0.0
 10
141.160880
 20
105.759920
 30
0.0
 10
138.384520
 20
104.758030
 30
0.0
 10
135.579940
 20
103.833750
 30
0.0
 10
132.747130
 20
102.994140
 30
0.0
 10
129.893160
 20
102.232140
 30
0.0
 10
127.021550
 20
101.554810
 30
0.0
 10
124.128770
 20
100.962140
 30
0.0
 10
121.218350
 20
100.454140
 30
0.0
 10
118.297350
 20
100.027280
 30
0.0
 10
115.362240
 20
99.688610
 30
0.0
 10
112.420070
 20
99.431090
 30
0.0
 10
109.474370
 20
99.261750
 30
0.0
 10
106.521620
 20
99.177050
 30
0.0
 10
103.568870
 20
99.177050
 30
0.0
 10
100.616120
 20
99.261750
 30
0.0
 10
97.670435
 20
99.434610
 30
0.0
 10
94.728265
 20
99.688610
 30
0.0
 10
91.793155
 20
100.030810
 30
0.0
 10
88.872155
 20
100.457670
 30
0.0
 10
85.965265
 20
100.965670
 30
0.0
 10
83.072485
 20
101.558340
 30
0.0
 10
80.197345
 20
102.235670
 30
0.0
 10
77.343375
 20
102.997670
 30
0.0
 10
74.514095
 20
103.840810
 30
0.0
 10
71.709515
 20
104.761560
 30
0.0
 10
68.933155
 20
105.766980
 30
0.0
 10
68.933155
 20
105.766980
 30
0.0
 10
68.710905
 20
105.812880
 30
0.0
 10
68.485125
 20
105.791680
 30
0.0
 10
68.276985
 20
105.706980
 30
0.0
 10
68.104125
 20
105.558820
 30
0.0
 10
67.984175
 20
105.368320
 30
0.0
 10
67.924175
 20
105.149600
 30
0.0
 10
67.934775
 20
104.923820
 30
0.0
 10
67.934775
 20
104.923820
 30
0.0
 10
67.980675
 20
104.461680
 30
0.0
 10
67.941875
 20
103.999540
 30
0.0
 10
67.814875
 20
103.551510
 30
0.0
 10
67.606735
 20
103.131710
 30
0.0
 10
67.328045
 20
102.761290
 30
0.0
 10
66.982325
 20
102.450840
 30
0.0
 10
66.583685
 20
102.207430
 30
0.0
 10
66.149765
 20
102.045150
 30
0.0
 10
65.691155
 20
101.964050
 30
0.0
 10
65.225485
 20
101.971050
 30
0.0
 10
64.770405
 20
102.062750
 30
0.0
 10
64.340015
 20
102.239140
 30
0.0
 10
63.948435
 20
102.489610
 30
0.0
 10
63.613295
 20
102.814170
 30
0.0
 10
63.341655
 20
103.191640
 30
0.0
 10
63.144095
 20
103.611440
 30
0.0
 10
63.031205
 20
104.063000
 30
0.0
 10
63.003005
 20
104.528670
 30
0.0
 10
63.063005
 20
104.990810
 30
0.0
 10
63.207645
 20
105.431780
 30
0.0
 10
63.429895
 20
105.841000
 30
0.0
 10
63.726235
 20
106.200830
 30
0.0
 10
64.082535
 20
106.497170
 30
0.0
 10
64.082535
 20
106.497170
 30
0.0
 10
64.248345
 20
106.652390
 30
0.0
 10
64.357705
 20
106.849940
 30
0.0
 10
64.407105
 20
107.068670
 30
0.0
 10
64.385905
 20
107.294440
 30
0.0
 10
64.297705
 20
107.502580
 30
0.0
 10
64.153065
 20
107.675440
 30
0.0
 10
63.959035
 20
107.798920
 30
0.0
 10
63.959035
 20
107.798920
 30
0.0
 10
61.316725
 20
109.005420
 30
0.0
 10
58.709705
 20
110.286000
 30
0.0
 10
56.137955
 20
111.644190
 30
0.0
 10
53.605005
 20
113.072940
 30
0.0
 10
51.117925
 20
114.572250
 30
0.0
 10
48.669645
 20
116.142110
 30
0.0
 10
46.270755
 20
117.779000
 30
0.0
 10
43.917725
 20
119.486440
 30
0.0
 10
41.614085
 20
121.257390
 30
0.0
 10
39.359835
 20
123.095360
 30
0.0
 10
37.162035
 20
124.996830
 30
0.0
 10
35.017145
 20
126.958280
 30
0.0
 10
32.928695
 20
128.979700
 30
0.0
 10
30.900225
 20
131.061080
 30
0.0
 10
28.931725
 20
133.198920
 30
0.0
 10
27.023195
 20
135.393200
 30
0.0
 10
25.178175
 20
137.636860
 30
0.0
 10
23.396645
 20
139.936970
 30
0.0
 10
21.682145
 20
142.282950
 30
0.0
 10
20.034675
 20
144.678310
 30
0.0
 10
20.034675
 20
144.678310
 30
0.0
 10
18.669425
 20
146.876110
 30
0.0
 10
17.364145
 20
149.112720
 30
0.0
 10
16.125895
 20
151.384610
 30
0.0
 10
14.954675
 20
153.695310
 30
0.0
 10
13.850475
 20
156.034220
 30
0.0
 10
12.813305
 20
158.408420
 30
0.0
 10
12.813305
 20
158.408420
 30
0.0
 10
12.693365
 20
158.598920
 30
0.0
 10
12.524035
 20
158.747090
 30
0.0
 10
12.315895
 20
158.838790
 30
0.0
 10
12.093645
 20
158.863490
 30
0.0
 10
11.871395
 20
158.821190
 30
0.0
 10
11.673835
 20
158.711830
 30
0.0
 10
11.515085
 20
158.553080
 30
0.0
 10
11.515085
 20
158.553080
 30
0.0
 10
11.211695
 20
158.200300
 30
0.0
 10
10.844805
 20
157.911020
 30
0.0
 10
10.432055
 20
157.692300
 30
0.0
 10
9.987555
 20
157.558250
 30
0.0
 10
9.525425
 20
157.508850
 30
0.0
 10
9.059755
 20
157.544150
 30
0.0
 10
8.611725
 20
157.667630
 30
0.0
 10
8.191925
 20
157.872240
 30
0.0
 10
7.817975
 20
158.150930
 30
0.0
 10
7.504005
 20
158.493130
 30
0.0
 10
7.260585
 20
158.888240
 30
0.0
 10
7.091255
 20
159.322150
 30
0.0
 10
7.006555
 20
159.780770
 30
0.0
 10
7.010555
 20
160.246430
 30
0.0
 10
7.102255
 20
160.705040
 30
0.0
 10
7.275115
 20
161.135430
 30
0.0
 10
7.525595
 20
161.527020
 30
0.0
 10
7.846615
 20
161.865680
 30
0.0
 10
8.220565
 20
162.140850
 30
0.0
 10
8.643895
 20
162.338400
 30
0.0
 10
9.095455
 20
162.454820
 30
0.0
 10
9.557595
 20
162.486520
 30
0.0
 10
10.023255
 20
162.430120
 30
0.0
 10
10.023255
 20
162.430120
 30
0.0
 10
10.245505
 20
162.416020
 30
0.0
 10
10.467755
 20
162.468920
 30
0.0
 10
10.658255
 20
162.585340
 30
0.0
 10
10.809955
 20
162.754670
 30
0.0
 10
10.901655
 20
162.959280
 30
0.0
 10
10.926355
 20
163.185060
 30
0.0
 10
10.887555
 20
163.407310
 30
0.0
 10
10.887555
 20
163.407310
 30
0.0
 10
10.072635
 20
165.837950
 30
0.0
 10
9.324745
 20
168.289760
 30
0.0
 10
8.650945
 20
170.762730
 30
0.0
 10
8.047695
 20
173.256870
 30
0.0
 10
7.514995
 20
175.765120
 30
0.0
 10
7.056385
 20
178.287480
 30
0.0
 10
6.668335
 20
180.820420
 30
0.0
 10
6.354355
 20
183.363950
 30
0.0
 10
6.110945
 20
185.918060
 30
0.0
 10
5.941605
 20
188.475700
 30
0.0
 10
5.941605
 20
188.475700
 30
0.0
 10
5.888705
 20
188.715590
 30
0.0
 10
5.758175
 20
188.920200
 30
0.0
 10
5.560615
 20
189.068370
 30
0.0
 10
5.327785
 20
189.138970
 30
0.0
 10
5.084365
 20
189.128370
 30
0.0
 10
4.858595
 20
189.033170
 30
0.0
 10
4.682205
 20
188.863840
 30
0.0
 10
4.569315
 20
188.645110
 30
0.0
 10
4.541115
 20
188.401700
 30
0.0
 10
4.541115
 20
188.401700
 30
0.0
 10
4.699865
 20
186.066310
 30
0.0
 10
4.922115
 20
183.734450
 30
0.0
 10
5.207865
 20
181.409640
 30
0.0
 10
5.553585
 20
179.091890
 30
0.0
 10
5.966335
 20
176.784720
 30
0.0
 10
5.966335
 20
176.784720
 30
0.0
 10
5.998135
 20
176.386090
 30
0.0
 10
5.945235
 20
175.987450
 30
0.0
 10
5.807655
 20
175.609970
 30
0.0
 10
5.595985
 20
175.271310
 30
0.0
 10
5.313765
 20
174.985560
 30
0.0
 10
4.978625
 20
174.763310
 30
0.0
 10
4.604685
 20
174.622200
 30
0.0
 10
4.206045
 20
174.562200
 30
0.0
 10
3.807405
 20
174.590400
 30
0.0
 10
3.419345
 20
174.699760
 30
0.0
 10
3.066565
 20
174.890260
 30
0.0
 10
2.763175
 20
175.151310
 30
0.0
 10
2.523295
 20
175.472340
 30
0.0
 10
2.353955
 20
175.835700
 30
0.0
 10
2.269255
 20
176.230810
 30
0.0
 10
2.269255
 20
176.230810
 30
0.0
 10
1.807115
 20
179.278810
 30
0.0
 10
1.429635
 20
182.337400
 30
0.0
 10
1.136835
 20
185.406560
 30
0.0
 10
0.932225
 20
188.482790
 30
0.0
 10
0.808755
 20
191.562540
 30
0.0
 10
0.773455
 20
194.645810
 30
0.0
 10
0.819355
 20
197.729092
 30
0.0
 10
0.953405
 20
200.808842
 30
0.0
 10
1.172135
 20
203.885065
 30
0.0
 10
1.475525
 20
206.954232
 30
0.0
 10
1.475525
 20
206.954232
 30
0.0
 10
1.563725
 20
207.356398
 30
0.0
 10
1.733055
 20
207.730343
 30
0.0
 10
1.976475
 20
208.061954
 30
0.0
 10
2.279865
 20
208.340648
 30
0.0
 10
2.636165
 20
208.545259
 30
0.0
 10
3.027755
 20
208.675787
 30
0.0
 10
3.433445
 20
208.721647
 30
0.0
 10
3.846195
 20
208.682847
 30
0.0
 10
4.237785
 20
208.562902
 30
0.0
 10
4.597615
 20
208.361819
 30
0.0
 10
4.908055
 20
208.093708
 30
0.0
 10
5.158535
 20
207.765625
 30
0.0
 10
5.331395
 20
207.395208
 30
0.0
 10
9.342475
 20
196.046350
 30
0.0
 10
9.342475
 20
196.046350
 30
0.0
 10
9.469475
 20
195.809990
 30
0.0
 10
9.659975
 20
195.623010
 30
0.0
 10
9.892805
 20
195.496010
 30
0.0
 10
10.153865
 20
195.439610
 30
0.0
 10
10.418445
 20
195.457210
 30
0.0
 10
10.668925
 20
195.548910
 30
0.0
 10
10.880585
 20
195.707660
 30
0.0
 10
11.042865
 20
195.915800
 30
0.0
 10
11.138065
 20
196.166270
 30
0.0
 10
11.162765
 20
196.430860
 30
0.0
 10
11.162765
 20
206.139303
 30
0.0
 10
11.162765
 20
206.139303
 30
0.0
 10
11.205065
 20
209.116748
 30
0.0
 10
11.332065
 20
212.094192
 30
0.0
 10
11.547255
 20
215.068109
 30
0.0
 10
11.847115
 20
218.031443
 30
0.0
 10
12.228115
 20
220.987721
 30
0.0
 10
12.697315
 20
223.929887
 30
0.0
 10
13.251175
 20
226.857943
 30
0.0
 10
13.889705
 20
229.771888
 30
0.0
  0
ENDSEC
  0
SECTION
  2
OBJECTS
  0
DICTIONARY
  5
C
330
0
100
AcDbDictionary
  3
ACAD_GROUP
350
D
  3
ACAD_MLINESTYLE
350
17
  0
DICTIONARY
  5
D
330
C
100
AcDbDictionary
  0
DICTIONARY
  5
1A
330
C
100
AcDbDictionary
  0
DICTIONARY
  5
17
330
C
100
AcDbDictionary
  3
STANDARD
350
18
  0
DICTIONARY
  5
19
330
C
100
AcDbDictionary
  0
ENDSEC
  0
EOF
