<?xml version="1.0" encoding="UTF-8" standalone="no"?>
<!-- Created with Inkscape (http://www.inkscape.org/) -->

<svg
   xmlns:dc="http://purl.org/dc/elements/1.1/"
   xmlns:cc="http://creativecommons.org/ns#"
   xmlns:rdf="http://www.w3.org/1999/02/22-rdf-syntax-ns#"
   xmlns:svg="http://www.w3.org/2000/svg"
   xmlns="http://www.w3.org/2000/svg"
   xmlns:sodipodi="http://sodipodi.sourceforge.net/DTD/sodipodi-0.dtd"
   xmlns:inkscape="http://www.inkscape.org/namespaces/inkscape"
   width="210mm"
   height="297mm"
   viewBox="0 0 210 297"
   version="1.1"
   id="svg8"
   inkscape:version="0.92.3 (2405546, 2018-03-11)"
   sodipodi:docname="ZeichnungNorbertRahmen.svg">
  <defs
     id="defs2" />
  <sodipodi:namedview
     id="base"
     pagecolor="#ffffff"
     bordercolor="#666666"
     borderopacity="1.0"
     inkscape:pageopacity="0.0"
     inkscape:pageshadow="2"
     inkscape:zoom="0.49497475"
     inkscape:cx="-35.372909"
     inkscape:cy="624.52744"
     inkscape:document-units="mm"
     inkscape:current-layer="layer1"
     showgrid="false"
     inkscape:measure-start="108.339,483.863"
     inkscape:measure-end="115.157,485.378"
     inkscape:window-width="2493"
     inkscape:window-height="1385"
     inkscape:window-x="67"
     inkscape:window-y="27"
     inkscape:window-maximized="1" />
  <metadata
     id="metadata5">
    <rdf:RDF>
      <cc:Work
         rdf:about="">
        <dc:format>image/svg+xml</dc:format>
        <dc:type
           rdf:resource="http://purl.org/dc/dcmitype/StillImage" />
        <dc:title></dc:title>
      </cc:Work>
    </rdf:RDF>
  </metadata>
  <g
     inkscape:label="Ebene 1"
     inkscape:groupmode="layer"
     id="layer1">
    <path
       inkscape:connector-curvature="0"
       id="path927"
       style="fill:#000000;fill-opacity:1;stroke:#f0ee0d;stroke-width:0.01234722;stroke-linecap:round;stroke-linejoin:round;stroke-miterlimit:10;stroke-dasharray:none;stroke-opacity:1"
       d="m 13.887625,67.228606 0.29986,-0.148166 0.25753,-0.215195 0.19755,-0.271639 0.13053,-0.306916 0.0564,-0.331612 -0.0247,-0.335138 -0.10231,-0.321028 -0.17639,-0.28575 -0.23636,-0.239889 -0.28575,-0.172861 v 0 l -0.30339,-0.105834 -0.32455,-0.02469 -0.3175,0.05644 -0.29281,0.134056 -0.25047,0.201083 -0.19403,0.257528 -0.12347,0.299861 -0.0494,0.3175 0.0353,0.321028 v 0 l 0.11642,0.606778 0.0776,0.613833 v 0 l 0.004,0.518584 -0.0811,0.511527 -0.16581,0.490361 -0.24694,0.455084 -0.3175,0.409222 -0.381,0.34925 -0.43392,0.282222 -0.47625,0.208139 -0.5009402,0.123472 -0.51859,0.03881 -0.51505,-0.04939 -0.50095,-0.130528 -0.46919,-0.215194 -0.43039,-0.289278 -0.37395,-0.356305 -0.31044,-0.416278 -0.23989,-0.458611 -0.15522,-0.493889 v 0 l -0.14817,-0.821973 -0.067,-0.836083 0.0176,-0.836083 0.0988,-0.829028 0.17992,-0.818445 0.26105,-0.79375 0.33514,-0.769055 0.41275,-0.726723 0.47625,-0.687916 0.54681,-0.635 0.60325,-0.578556 0.65969,-0.515056 0.7055602,-0.448027 0.74436,-0.377473 0.77964,-0.303389 0.80786,-0.225777 0.82197,-0.144639 v 0 l 0.75142,-0.05292 0.75141,0.02822 0.74789,0.105834 0.72673,0.183444 0.70908,0.261056 0.6738,0.331611 0.635,0.405694 0.58914,0.465667 0.53623,0.529167 0.47625,0.582083 0.41275,0.627945 0.34572,0.670277 0.27164,0.702028 0.19403,0.726722 0.11641,0.744362 0.0388,0.751416 -0.0423,0.751417 -0.11994,0.740833 -0.20108,0.726723 -0.27517,0.702028 v 0 l -0.63853,2.776361 -0.55739,2.794 -0.47272,2.811639 -0.39158,2.822222 -0.30692,2.832806 -0.22225,2.843389 -0.13758,2.846917 -0.0565,2.846917 0.0318,2.850445 0.11289,2.846916 0.20108,2.843389 0.28223,2.836332 0.36689,2.82575 0.44802,2.81517 0.5327,2.80105 0.61736,2.78342 v 0 l 0.13758,0.48331 0.0529,0.49741 -0.0317,0.50095 -0.11289,0.49036 -0.19756,0.46214 -0.27163,0.42333 -0.33867,0.37042 -0.39511,0.31044 -0.4445,0.23636 -0.47625,0.16228 -0.49389,0.0741 -0.50447,-0.007 v 0 l -0.23284,0.0282 -0.21166,0.10583 -0.16581,0.16581 -0.0988,0.21519 -0.0247,0.23284 v 4.953 0 l 0.0459,1.9932 0.13406,1.98614 0.21519,1.97908 0.30339,1.97203 0.38453,1.95439 0.46919,1.93322 0.55386,1.91558 0.635,1.88736 0.71261,1.86267 0.79375,1.82739 0.87137,1.78858 0.94544,1.75331 1.02306,1.71097 1.09361,1.66511 v 0 l 1.64747,2.39536 1.72155,2.34598 1.78859,2.29305 1.86266,2.23661 1.92264,2.18017 1.9932,2.1202 2.05316,2.06022 2.11667,1.99672 2.17664,1.93322 2.22956,1.86267 2.28952,1.79564 2.34245,1.72861 2.39183,1.65453 2.44122,1.58044 2.48709,1.50636 2.53294,1.43228 2.57528,1.35467 2.61408,1.27353 2.65289,1.19591 2.68464,1.11478 2.71992,1.03364 2.74814,0.9525 2.77636,0.8643 2.80458,0.78317 2.82223,0.6985 2.84338,0.61031 2.86103,0.52564 2.87867,0.43744 2.88572,0.35278 2.89631,0.26105 2.903355,0.17639 2.90689,0.0882 h 2.91041 l 2.90689,-0.0882 2.90337,-0.17639 2.89983,-0.26105 2.88573,-0.35278 2.87513,-0.43744 2.86103,-0.52564 2.84339,-0.61031 2.82575,-0.6985 2.80106,-0.78317 2.77636,-0.8643 2.75167,-0.9525 2.71638,-1.03364 2.68817,-1.11478 2.65289,-1.19591 2.61408,-1.27353 2.57528,-1.35467 2.53295,-1.43228 2.48708,-1.50636 2.44122,-1.58044 2.39184,-1.65453 2.34244,-1.72508 2.286,-1.79917 2.23308,-1.86267 2.17664,-1.93322 2.11314,-1.99672 2.0567,-2.0567 1.98966,-2.12372 1.92617,-2.18017 1.85914,-2.23661 1.79211,-2.29305 1.71803,-2.34245 1.651,-2.39889 v 0 l 1.04422,-1.5875 0.9772,-1.6263 0.91369,-1.66864 0.84314,-1.70392 0.77258,-1.73566 0.6985,-1.76742 0.62795,-1.79211 0.55386,-1.82034 0.47978,-1.83797 0.40569,-1.85561 0.32456,-1.87325 0.25047,-1.88383 0.17639,-1.89089 0.0953,-1.89795 0.0176,-1.90147 0.0141,-4.42384 v 0 l -0.0459,-0.21519 -0.10936,-0.18698 -0.16228,-0.14816 -0.20108,-0.0882 -0.2152,-0.0247 v 0 l -0.50447,0.007 -0.49389,-0.0741 -0.47625,-0.16228 -0.4445,-0.23636 -0.39511,-0.31045 -0.33867,-0.37041 -0.27164,-0.42334 -0.19755,-0.46213 -0.11289,-0.49037 -0.0317,-0.50094 0.0529,-0.49742 0.13758,-0.4833 v 0 l 0.61736,-2.78342 0.5327,-2.80105 0.44803,-2.81517 0.36688,-2.82575 0.28223,-2.836335 0.20108,-2.843389 0.11289,-2.846916 0.0317,-2.850445 -0.0564,-2.846917 -0.13759,-2.846917 -0.22225,-2.843389 -0.30691,-2.832806 -0.39159,-2.822222 -0.47272,-2.811639 -0.55739,-2.794 -0.63852,-2.776361 v 0 l -0.27517,-0.702028 -0.20108,-0.726723 -0.11995,-0.740833 -0.0423,-0.751417 0.0388,-0.751416 0.11642,-0.744362 0.19403,-0.726722 0.27163,-0.702028 0.34573,-0.670277 0.41275,-0.627945 0.47625,-0.582083 0.53622,-0.529167 0.58914,-0.465667 0.635,-0.405694 0.6738,-0.331611 0.70909,-0.261056 0.72672,-0.183444 0.74789,-0.105834 0.75142,-0.02822 0.75141,0.05292 v 0 l 0.82197,0.144639 0.80787,0.225777 0.77963,0.303389 0.74437,0.377473 0.70555,0.448027 0.6597,0.515056 0.60325,0.578556 0.5468,0.635 0.47625,0.687916 0.41275,0.726723 0.33514,0.769055 0.26106,0.79375 0.17991,0.818445 0.0988,0.829028 0.0176,0.836083 -0.067,0.836083 -0.14816,0.821973 v 0 l -0.15523,0.493889 -0.23989,0.458611 -0.31044,0.416278 -0.37394,0.356305 -0.43039,0.289278 -0.4692,0.215194 -0.50094,0.130528 -0.51506,0.04939 -0.51858,-0.03881 -0.50095,-0.123472 -0.47625,-0.208139 -0.43391,-0.282222 -0.381,-0.34925 -0.3175,-0.409222 -0.24695,-0.455084 -0.1658,-0.490361 -0.0811,-0.511527 0.004,-0.518584 v 0 l 0.06,-0.490361 0.0811,-0.486833 v 0 l 0.06,-0.41275 v 0 l -0.007,-0.299861 -0.0776,-0.289278 -0.14112,-0.264584 -0.19755,-0.225777 -0.24695,-0.172862 -0.27869,-0.112888 -0.29633,-0.04233 -0.29986,0.0247 -0.28223,0.09525 v 0 l -0.28575,0.172861 -0.23636,0.239889 -0.17639,0.28575 -0.1023,0.321028 -0.0247,0.335138 0.0565,0.331612 0.13053,0.306916 0.19755,0.271639 0.25753,0.215195 0.29986,0.148166 v 0 l 0.63853,2.913945 0.55386,2.928056 0.46919,2.942166 0.381,2.956278 0.29987,2.963334 0.21519,2.973917 0.127,2.977444 0.0423,2.977445 v 9.814273 0 l 0.0494,0.25401 0.11994,0.23283 0.17639,0.1905 0.22225,0.13405 0.25048,0.0706 0.25752,-0.004 0.25048,-0.0741 0.21872,-0.13758 0.17286,-0.1905 0.11642,-0.23283 3.99697,-11.313587 v 0 l 0.17286,-0.370417 0.25047,-0.328083 0.31045,-0.268111 0.35983,-0.201083 0.39158,-0.119945 0.41275,-0.0388 0.4057,0.04586 0.39158,0.130528 0.35631,0.204611 0.30339,0.278694 0.24341,0.331611 0.16934,0.373945 0.0882,0.402166 v 0 l 0.30339,3.069167 0.21872,3.076223 0.13406,3.07975 0.0459,3.083281 -0.0353,3.08327 -0.12347,3.07975 -0.20461,3.07623 -0.29281,3.06916 -0.37747,3.05859 -0.46214,3.048 v 0 l -0.0847,0.39511 -0.16933,0.36336 -0.23989,0.32103 -0.30339,0.26105 -0.35278,0.1905 -0.38805,0.10936 -0.39864,0.0282 -0.39864,-0.06 -0.37394,-0.14111 -0.33514,-0.22225 -0.28223,-0.28575 -0.21166,-0.33866 -0.13759,-0.37748 -0.0529,-0.39863 0.0317,-0.39864 v 0 l 0.41275,-2.30364 0.34572,-2.31775 0.28575,-2.32128 0.22225,-2.33186 0.15522,-2.33539 v 0 l -0.0282,-0.24342 -0.10936,-0.22225 -0.17992,-0.16933 -0.2293,-0.0952 -0.24695,-0.0141 -0.23283,0.0741 -0.19756,0.14816 -0.13405,0.20814 -0.0564,0.23989 v 0 l -0.16933,2.55764 -0.23989,2.55059 -0.31397,2.54352 -0.38806,2.53295 -0.46214,2.52236 -0.52916,2.50472 -0.60325,2.49061 -0.67381,2.47298 -0.74789,2.4518 -0.81491,2.43064 v 0 l -0.0388,0.22225 0.0247,0.22578 0.0917,0.20461 0.15169,0.16933 0.1905,0.11642 0.21872,0.0529 0.22578,-0.0141 v 0 l 0.46214,-0.0529 0.46567,0.0282 0.44802,0.11995 0.41981,0.19755 0.37747,0.27164 0.32103,0.34219 0.24694,0.39159 0.17287,0.43039 0.0917,0.45861 0.004,0.46214 -0.0847,0.45861 -0.16581,0.43391 -0.24694,0.39512 -0.31397,0.34219 -0.37395,0.27869 -0.41627,0.20462 -0.44803,0.12347 -0.46567,0.0388 -0.46214,-0.0494 -0.4445,-0.13758 -0.41275,-0.21519 -0.36689,-0.28575 -0.30339,-0.35278 v 0 l -0.15875,-0.16228 -0.19755,-0.10583 -0.22225,-0.0423 -0.22225,0.0247 -0.20814,0.0917 -0.16933,0.14817 -0.11642,0.1905 v 0 l -1.03717,2.37419 -1.10419,2.33892 -1.17475,2.30717 -1.23825,2.27189 -1.30175,2.23661 -1.36878,2.1978 v 0 l -1.64394,2.39536 -1.7145,2.3495 -1.778,2.29659 -1.84503,2.24719 -1.90853,2.19428 -1.9685,2.13783 -2.02847,2.08139 -2.08492,2.02142 -2.14489,1.96497 -2.20133,1.90147 -2.25072,1.83445 -2.30364,1.77447 -2.35303,1.70745 -2.39889,1.63688 -2.44828,1.56987 -2.49061,1.4993 -2.52942,1.42875 -2.57175,1.35467 -2.61055,1.28058 -2.64231,1.2065 v 0 l -0.1905,0.12347 -0.14816,0.17286 -0.0847,0.20814 -0.0212,0.22225 0.0459,0.22225 0.10936,0.19756 0.1658,0.15522 v 0 l 0.35631,0.29633 0.2928,0.35984 0.22578,0.40922 0.14111,0.44097 0.06,0.46214 -0.0282,0.46214 -0.11641,0.45156 -0.19403,0.42333 -0.27164,0.37747 -0.33514,0.32103 -0.39158,0.25047 -0.43039,0.17639 -0.45509,0.0917 -0.46566,0.007 -0.45861,-0.0811 -0.43392,-0.16228 -0.39864,-0.24341 -0.34219,-0.31045 -0.28223,-0.37042 -0.20814,-0.41627 -0.127,-0.44803 -0.0388,-0.46214 0.0459,-0.46214 v 0 l 0.007,-0.22578 -0.06,-0.21872 -0.11994,-0.1905 -0.17286,-0.14464 -0.20814,-0.0882 -0.22578,-0.0212 -0.21872,0.0494 v 0 l -2.77636,1.00189 -2.80458,0.92428 -2.83281,0.83961 -2.85397,0.762 -2.87161,0.67733 -2.89278,0.59267 -2.91042,0.508 -2.921,0.42686 -2.93511,0.33867 -2.94217,0.25752 -2.9457,0.16934 -2.95275,0.0847 h -2.95275 l -2.95275,-0.0847 -2.945685,-0.17286 -2.94217,-0.254 -2.93511,-0.3422 -2.921,-0.42686 -2.90689,-0.508 -2.89278,-0.59267 -2.87514,-0.67733 -2.85397,-0.762 -2.82928,-0.84314 -2.80458,-0.92075 -2.77636,-1.00542 v 0 l -0.22225,-0.0459 -0.22578,0.0212 -0.20814,0.0847 -0.17286,0.14816 -0.11995,0.1905 -0.06,0.21872 0.0106,0.22578 v 0 l 0.0459,0.46214 -0.0388,0.46214 -0.127,0.44803 -0.20814,0.4198 -0.27869,0.37042 -0.34572,0.31045 -0.39864,0.24341 -0.43392,0.16228 -0.45861,0.0811 -0.46567,-0.007 -0.45508,-0.0917 -0.43039,-0.17639 -0.39158,-0.25047 -0.33514,-0.32456 -0.27164,-0.37747 -0.19756,-0.4198 -0.11289,-0.45156 -0.0282,-0.46567 0.06,-0.46214 0.14464,-0.44097 0.22225,-0.40922 0.29634,-0.35983 0.3563,-0.29634 v 0 l 0.16581,-0.15522 0.10936,-0.19755 0.0494,-0.21873 -0.0212,-0.22577 -0.0882,-0.20814 -0.14464,-0.17286 -0.19403,-0.12348 v 0 l -2.64231,-1.2065 -2.60702,-1.28058 -2.57175,-1.35819 -2.53295,-1.42875 -2.48708,-1.49931 -2.44828,-1.56986 -2.39889,-1.63689 -2.35303,-1.70744 -2.30364,-1.77095 -2.25425,-1.83797 -2.1978,-1.90147 -2.14489,-1.96145 -2.08845,-2.02142 -2.02847,-2.08138 -1.9685,-2.13784 -1.90853,-2.19428 -1.84502,-2.24366 -1.78153,-2.30011 -1.7145,-2.34598 -1.64747,-2.39536 v 0 l -1.36525,-2.1978 -1.30528,-2.23661 -1.23825,-2.27189 -1.17122,-2.3107 -1.1042,-2.33891 -1.03717,-2.3742 v 0 l -0.11994,-0.1905 -0.16933,-0.14817 -0.20814,-0.0917 -0.22225,-0.0247 -0.22225,0.0423 -0.19756,0.10936 -0.15875,0.15875 v 0 l -0.30339,0.35278 -0.36689,0.28928 -0.41275,0.21872 -0.4445002,0.13405 -0.46213,0.0494 -0.46567,-0.0353 -0.44803,-0.12348 -0.4198,-0.20461 -0.37395,-0.27869 -0.31397,-0.3422 -0.24342,-0.39511 -0.16933,-0.43391 -0.0847,-0.45862 0.004,-0.46566 0.0917,-0.45861 0.17286,-0.43039 0.25048,-0.39159 0.32102,-0.33866 0.37395,-0.27517 0.42333,-0.19755 0.45156,-0.11642 0.46214,-0.0317 0.4656602,0.0564 v 0 l 0.22225,0.0141 0.22225,-0.0529 0.1905,-0.11642 0.1517,-0.16933 0.0917,-0.20461 0.0247,-0.22578 -0.0388,-0.22225 v 0 l -0.81492,-2.43064 -0.7478902,-2.45181 -0.6738,-2.47297 -0.60325,-2.49414 -0.5327,-2.50825 -0.45861,-2.52236 -0.38805,-2.53294 -0.31398,-2.54353 -0.24341,-2.55411 -0.16934,-2.55764 v 0 l -0.0529,-0.23989 -0.13053,-0.20461 -0.19756,-0.14817 -0.23283,-0.0706 -0.24342,0.0106 -0.22577,0.0952 -0.17639,0.16933 -0.11289,0.21873 -0.0282,0.24341 v 0 l 0.15875,2.33539 0.22225,2.33186 0.28575,2.32481 0.34572,2.31775 0.41275,2.30717 v 0 l 0.0318,0.39863 -0.0529,0.39864 -0.13758,0.37748 -0.21167,0.33866 -0.28222,0.28575 -0.33514,0.22225 -0.37394,0.14111 -0.39864,0.06 -0.39864,-0.0282 -0.38806,-0.10936 -0.35278,-0.1905 -0.30339,-0.26105 -0.23988,-0.32103 -0.16934,-0.36336 -0.0847,-0.39511 v 0 l -0.46214,-3.048 -0.37748,-3.05859 -0.2928,-3.06916 -0.20460998,-3.07623 -0.12347,-3.07975 -0.0353,-3.08327 0.0459,-3.083282 0.13405,-3.07975 0.21872998,-3.076223 0.30339,-3.069167 v 0 l 0.0882,-0.402166 0.16933,-0.373945 0.24342,-0.331611 0.30339,-0.278694 0.3563,-0.204611 0.39159,-0.130528 0.40569,-0.04586 0.41275,0.0388 0.39159,0.119945 0.35983,0.201083 0.31044,0.268111 0.25048,0.328083 0.17286,0.370417 4.01108,11.348858 v 0 l 0.127,0.23636 0.1905,0.18698 0.23283,0.127 0.2610602,0.0564 0.26458,-0.0176 0.25048,-0.0917 0.21166,-0.15875 0.16228,-0.20814 0.0952,-0.25047 0.0247,-0.26459 v -9.708443 0 l 0.0423,-2.977445 0.127,-2.977444 0.21519,-2.973917 0.29986,-2.963334 0.381,-2.956278 0.4692,-2.942166 0.55386,-2.928056 0.63853,-2.913945" />
  </g>
</svg>
